<?xml version="1.0" encoding="UTF-8" standalone="no"?>
<!DOCTYPE svg PUBLIC "-//W3C//DTD SVG 1.1//EN"
 "http://www.w3.org/Graphics/SVG/1.1/DTD/svg11.dtd">
<!-- Generated by graphviz version 2.47.0 (20210316.0004)
 -->
<!-- Title: dependencies Pages: 1 -->
<svg width="2632pt" height="211pt"
 viewBox="0.00 0.00 2632.00 211.00" xmlns="http://www.w3.org/2000/svg" xmlns:xlink="http://www.w3.org/1999/xlink">
<g id="graph0" class="graph" transform="scale(1 1) rotate(0) translate(4 207)">
<title>dependencies</title>
<polygon fill="white" stroke="transparent" points="-4,4 -4,-207 2628,-207 2628,4 -4,4"/>
<text text-anchor="start" x="1291.01" y="-42.4" font-family="sans-serif" font-weight="bold" font-size="14.00">Legend</text>
<polygon fill="#ffffb3" stroke="transparent" points="1078,-10 1078,-30 1098,-30 1098,-10 1078,-10"/>
<text text-anchor="start" x="1101.63" y="-15.4" font-family="sans-serif" font-size="14.00"> &#160;Declarations</text>
<polygon fill="#8dd3c7" stroke="transparent" points="1191,-10 1191,-30 1211,-30 1211,-10 1191,-10"/>
<text text-anchor="start" x="1214.73" y="-15.4" font-family="sans-serif" font-size="14.00"> &#160;Module</text>
<polygon fill="#80b1d3" stroke="transparent" points="1277,-10 1277,-30 1297,-30 1297,-10 1277,-10"/>
<text text-anchor="start" x="1300.78" y="-15.4" font-family="sans-serif" font-size="14.00"> &#160;Bootstrap</text>
<polygon fill="#fdb462" stroke="transparent" points="1374,-10 1374,-30 1394,-30 1394,-10 1374,-10"/>
<text text-anchor="start" x="1397.67" y="-15.4" font-family="sans-serif" font-size="14.00"> &#160;Providers</text>
<polygon fill="#fb8072" stroke="transparent" points="1470,-10 1470,-30 1490,-30 1490,-10 1470,-10"/>
<text text-anchor="start" x="1493.73" y="-15.4" font-family="sans-serif" font-size="14.00"> &#160;Exports</text>
<g id="clust1" class="cluster">
<title>cluster_AdminLayoutModule</title>
<polygon fill="none" stroke="black" stroke-dasharray="1,5" points="8,-70 8,-195 2616,-195 2616,-70 8,-70"/>
</g>
<g id="clust2" class="cluster">
<title>cluster_AdminLayoutModule_declarations</title>
<polygon fill="none" stroke="black" points="16,-78 16,-130 2608,-130 2608,-78 16,-78"/>
</g>
<!-- ArtiklEditComponent -->
<g id="node1" class="node">
<title>ArtiklEditComponent</title>
<polygon fill="#ffffb3" stroke="black" points="2600.11,-122 2461.89,-122 2461.89,-86 2600.11,-86 2600.11,-122"/>
<text text-anchor="middle" x="2531" y="-99.8" font-family="Times,serif" font-size="14.00">ArtiklEditComponent</text>
</g>
<!-- AdminLayoutModule -->
<g id="node17" class="node">
<title>AdminLayoutModule</title>
<polygon fill="#8dd3c7" stroke="black" points="1419.1,-187 1416.1,-191 1395.1,-191 1392.1,-187 1280.9,-187 1280.9,-151 1419.1,-151 1419.1,-187"/>
<text text-anchor="middle" x="1350" y="-164.8" font-family="Times,serif" font-size="14.00">AdminLayoutModule</text>
</g>
<!-- ArtiklEditComponent&#45;&gt;AdminLayoutModule -->
<g id="edge1" class="edge">
<title>ArtiklEditComponent&#45;&gt;AdminLayoutModule</title>
<path fill="none" stroke="black" d="M2531,-122.32C2531,-145.66 2531,-183 2531,-183 2531,-183 1429.47,-183 1429.47,-183"/>
<polygon fill="black" stroke="black" points="1429.47,-179.5 1419.47,-183 1429.47,-186.5 1429.47,-179.5"/>
</g>
<!-- ArtiklNoviComponent -->
<g id="node2" class="node">
<title>ArtiklNoviComponent</title>
<polygon fill="#ffffb3" stroke="black" points="2444.27,-122 2301.73,-122 2301.73,-86 2444.27,-86 2444.27,-122"/>
<text text-anchor="middle" x="2373" y="-99.8" font-family="Times,serif" font-size="14.00">ArtiklNoviComponent</text>
</g>
<!-- ArtiklNoviComponent&#45;&gt;AdminLayoutModule -->
<g id="edge2" class="edge">
<title>ArtiklNoviComponent&#45;&gt;AdminLayoutModule</title>
<path fill="none" stroke="black" d="M2373,-122.29C2373,-144.21 2373,-178 2373,-178 2373,-178 1429.11,-178 1429.11,-178"/>
<polygon fill="black" stroke="black" points="1429.11,-174.5 1419.11,-178 1429.11,-181.5 1429.11,-174.5"/>
</g>
<!-- ArtikliComponent -->
<g id="node3" class="node">
<title>ArtikliComponent</title>
<polygon fill="#ffffb3" stroke="black" points="2283.16,-122 2164.84,-122 2164.84,-86 2283.16,-86 2283.16,-122"/>
<text text-anchor="middle" x="2224" y="-99.8" font-family="Times,serif" font-size="14.00">ArtikliComponent</text>
</g>
<!-- ArtikliComponent&#45;&gt;AdminLayoutModule -->
<g id="edge3" class="edge">
<title>ArtikliComponent&#45;&gt;AdminLayoutModule</title>
<path fill="none" stroke="black" d="M2224,-122.03C2224,-142.77 2224,-174 2224,-174 2224,-174 1429.31,-174 1429.31,-174"/>
<polygon fill="black" stroke="black" points="1429.31,-170.5 1419.31,-174 1429.31,-177.5 1429.31,-170.5"/>
</g>
<!-- DashboardComponent -->
<g id="node4" class="node">
<title>DashboardComponent</title>
<polygon fill="#ffffb3" stroke="black" points="2146.97,-122 2005.03,-122 2005.03,-86 2146.97,-86 2146.97,-122"/>
<text text-anchor="middle" x="2076" y="-99.8" font-family="Times,serif" font-size="14.00">DashboardComponent</text>
</g>
<!-- DashboardComponent&#45;&gt;AdminLayoutModule -->
<g id="edge4" class="edge">
<title>DashboardComponent&#45;&gt;AdminLayoutModule</title>
<path fill="none" stroke="black" d="M2076,-122.11C2076,-141.34 2076,-169 2076,-169 2076,-169 1429.28,-169 1429.28,-169"/>
<polygon fill="black" stroke="black" points="1429.28,-165.5 1419.28,-169 1429.28,-172.5 1429.28,-165.5"/>
</g>
<!-- KoirisnikEditComponent -->
<g id="node5" class="node">
<title>KoirisnikEditComponent</title>
<polygon fill="#ffffb3" stroke="black" points="1986.55,-122 1829.45,-122 1829.45,-86 1986.55,-86 1986.55,-122"/>
<text text-anchor="middle" x="1908" y="-99.8" font-family="Times,serif" font-size="14.00">KoirisnikEditComponent</text>
</g>
<!-- KoirisnikEditComponent&#45;&gt;AdminLayoutModule -->
<g id="edge5" class="edge">
<title>KoirisnikEditComponent&#45;&gt;AdminLayoutModule</title>
<path fill="none" stroke="black" d="M1908,-122.3C1908,-140.27 1908,-165 1908,-165 1908,-165 1429.26,-165 1429.26,-165"/>
<polygon fill="black" stroke="black" points="1429.26,-161.5 1419.26,-165 1429.26,-168.5 1429.26,-161.5"/>
</g>
<!-- KorisniciComponent -->
<g id="node6" class="node">
<title>KorisniciComponent</title>
<polygon fill="#ffffb3" stroke="black" points="1811.93,-122 1678.07,-122 1678.07,-86 1811.93,-86 1811.93,-122"/>
<text text-anchor="middle" x="1745" y="-99.8" font-family="Times,serif" font-size="14.00">KorisniciComponent</text>
</g>
<!-- KorisniciComponent&#45;&gt;AdminLayoutModule -->
<g id="edge6" class="edge">
<title>KorisniciComponent&#45;&gt;AdminLayoutModule</title>
<path fill="none" stroke="black" d="M1745,-122.03C1745,-138.4 1745,-160 1745,-160 1745,-160 1429.26,-160 1429.26,-160"/>
<polygon fill="black" stroke="black" points="1429.26,-156.5 1419.26,-160 1429.26,-163.5 1429.26,-156.5"/>
</g>
<!-- KorisnikNoviComponent -->
<g id="node7" class="node">
<title>KorisnikNoviComponent</title>
<polygon fill="#ffffb3" stroke="black" points="1660.32,-122 1501.68,-122 1501.68,-86 1660.32,-86 1660.32,-122"/>
<text text-anchor="middle" x="1581" y="-99.8" font-family="Times,serif" font-size="14.00">KorisnikNoviComponent</text>
</g>
<!-- KorisnikNoviComponent&#45;&gt;AdminLayoutModule -->
<g id="edge7" class="edge">
<title>KorisnikNoviComponent&#45;&gt;AdminLayoutModule</title>
<path fill="none" stroke="black" d="M1581,-122.19C1581,-137.18 1581,-156 1581,-156 1581,-156 1429.31,-156 1429.31,-156"/>
<polygon fill="black" stroke="black" points="1429.31,-152.5 1419.31,-156 1429.31,-159.5 1429.31,-152.5"/>
</g>
<!-- ModalComponent -->
<g id="node8" class="node">
<title>ModalComponent</title>
<polygon fill="#ffffb3" stroke="black" points="1483.88,-122 1366.12,-122 1366.12,-86 1483.88,-86 1483.88,-122"/>
<text text-anchor="middle" x="1425" y="-99.8" font-family="Times,serif" font-size="14.00">ModalComponent</text>
</g>
<!-- ModalComponent&#45;&gt;AdminLayoutModule -->
<g id="edge8" class="edge">
<title>ModalComponent&#45;&gt;AdminLayoutModule</title>
<path fill="none" stroke="black" d="M1392.55,-122.11C1392.55,-122.11 1392.55,-140.99 1392.55,-140.99"/>
<polygon fill="black" stroke="black" points="1389.05,-140.99 1392.55,-150.99 1396.05,-140.99 1389.05,-140.99"/>
</g>
<!-- PartnerEditComponent -->
<g id="node9" class="node">
<title>PartnerEditComponent</title>
<polygon fill="#ffffb3" stroke="black" points="1348.59,-122 1203.41,-122 1203.41,-86 1348.59,-86 1348.59,-122"/>
<text text-anchor="middle" x="1276" y="-99.8" font-family="Times,serif" font-size="14.00">PartnerEditComponent</text>
</g>
<!-- PartnerEditComponent&#45;&gt;AdminLayoutModule -->
<g id="edge9" class="edge">
<title>PartnerEditComponent&#45;&gt;AdminLayoutModule</title>
<path fill="none" stroke="black" d="M1314.75,-122.11C1314.75,-122.11 1314.75,-140.99 1314.75,-140.99"/>
<polygon fill="black" stroke="black" points="1311.25,-140.99 1314.75,-150.99 1318.25,-140.99 1311.25,-140.99"/>
</g>
<!-- PartnerNoviComponent -->
<g id="node10" class="node">
<title>PartnerNoviComponent</title>
<polygon fill="#ffffb3" stroke="black" points="1185.75,-122 1036.25,-122 1036.25,-86 1185.75,-86 1185.75,-122"/>
<text text-anchor="middle" x="1111" y="-99.8" font-family="Times,serif" font-size="14.00">PartnerNoviComponent</text>
</g>
<!-- PartnerNoviComponent&#45;&gt;AdminLayoutModule -->
<g id="edge10" class="edge">
<title>PartnerNoviComponent&#45;&gt;AdminLayoutModule</title>
<path fill="none" stroke="black" d="M1111,-122.19C1111,-137.18 1111,-156 1111,-156 1111,-156 1270.87,-156 1270.87,-156"/>
<polygon fill="black" stroke="black" points="1270.87,-159.5 1280.87,-156 1270.87,-152.5 1270.87,-159.5"/>
</g>
<!-- PartneriComponent -->
<g id="node11" class="node">
<title>PartneriComponent</title>
<polygon fill="#ffffb3" stroke="black" points="1017.65,-122 892.35,-122 892.35,-86 1017.65,-86 1017.65,-122"/>
<text text-anchor="middle" x="955" y="-99.8" font-family="Times,serif" font-size="14.00">PartneriComponent</text>
</g>
<!-- PartneriComponent&#45;&gt;AdminLayoutModule -->
<g id="edge11" class="edge">
<title>PartneriComponent&#45;&gt;AdminLayoutModule</title>
<path fill="none" stroke="black" d="M955,-122.03C955,-138.4 955,-160 955,-160 955,-160 1270.74,-160 1270.74,-160"/>
<polygon fill="black" stroke="black" points="1270.74,-163.5 1280.74,-160 1270.74,-156.5 1270.74,-163.5"/>
</g>
<!-- RacunNoviComponent -->
<g id="node12" class="node">
<title>RacunNoviComponent</title>
<polygon fill="#ffffb3" stroke="black" points="874.6,-122 729.4,-122 729.4,-86 874.6,-86 874.6,-122"/>
<text text-anchor="middle" x="802" y="-99.8" font-family="Times,serif" font-size="14.00">RacunNoviComponent</text>
</g>
<!-- RacunNoviComponent&#45;&gt;AdminLayoutModule -->
<g id="edge12" class="edge">
<title>RacunNoviComponent&#45;&gt;AdminLayoutModule</title>
<path fill="none" stroke="black" d="M802,-122.3C802,-140.27 802,-165 802,-165 802,-165 1270.87,-165 1270.87,-165"/>
<polygon fill="black" stroke="black" points="1270.87,-168.5 1280.87,-165 1270.87,-161.5 1270.87,-168.5"/>
</g>
<!-- RacuniComponent -->
<g id="node13" class="node">
<title>RacuniComponent</title>
<polygon fill="#ffffb3" stroke="black" points="711.49,-122 590.51,-122 590.51,-86 711.49,-86 711.49,-122"/>
<text text-anchor="middle" x="651" y="-99.8" font-family="Times,serif" font-size="14.00">RacuniComponent</text>
</g>
<!-- RacuniComponent&#45;&gt;AdminLayoutModule -->
<g id="edge13" class="edge">
<title>RacuniComponent&#45;&gt;AdminLayoutModule</title>
<path fill="none" stroke="black" d="M651,-122.11C651,-141.34 651,-169 651,-169 651,-169 1270.74,-169 1270.74,-169"/>
<polygon fill="black" stroke="black" points="1270.74,-172.5 1280.74,-169 1270.74,-165.5 1270.74,-172.5"/>
</g>
<!-- VrstaRacunaEditComponent -->
<g id="node14" class="node">
<title>VrstaRacunaEditComponent</title>
<polygon fill="#ffffb3" stroke="black" points="572.46,-122 395.54,-122 395.54,-86 572.46,-86 572.46,-122"/>
<text text-anchor="middle" x="484" y="-99.8" font-family="Times,serif" font-size="14.00">VrstaRacunaEditComponent</text>
</g>
<!-- VrstaRacunaEditComponent&#45;&gt;AdminLayoutModule -->
<g id="edge14" class="edge">
<title>VrstaRacunaEditComponent&#45;&gt;AdminLayoutModule</title>
<path fill="none" stroke="black" d="M484,-122.03C484,-142.77 484,-174 484,-174 484,-174 1270.6,-174 1270.6,-174"/>
<polygon fill="black" stroke="black" points="1270.6,-177.5 1280.6,-174 1270.6,-170.5 1270.6,-177.5"/>
</g>
<!-- VrstaRacunaNoviComponent -->
<g id="node15" class="node">
<title>VrstaRacunaNoviComponent</title>
<polygon fill="#ffffb3" stroke="black" points="377.63,-122 196.37,-122 196.37,-86 377.63,-86 377.63,-122"/>
<text text-anchor="middle" x="287" y="-99.8" font-family="Times,serif" font-size="14.00">VrstaRacunaNoviComponent</text>
</g>
<!-- VrstaRacunaNoviComponent&#45;&gt;AdminLayoutModule -->
<g id="edge15" class="edge">
<title>VrstaRacunaNoviComponent&#45;&gt;AdminLayoutModule</title>
<path fill="none" stroke="black" d="M287,-122.29C287,-144.21 287,-178 287,-178 287,-178 1270.66,-178 1270.66,-178"/>
<polygon fill="black" stroke="black" points="1270.66,-181.5 1280.66,-178 1270.66,-174.5 1270.66,-181.5"/>
</g>
<!-- VrsteRacunaComponent -->
<g id="node16" class="node">
<title>VrsteRacunaComponent</title>
<polygon fill="#ffffb3" stroke="black" points="177.63,-122 24.37,-122 24.37,-86 177.63,-86 177.63,-122"/>
<text text-anchor="middle" x="101" y="-99.8" font-family="Times,serif" font-size="14.00">VrsteRacunaComponent</text>
</g>
<!-- VrsteRacunaComponent&#45;&gt;AdminLayoutModule -->
<g id="edge16" class="edge">
<title>VrsteRacunaComponent&#45;&gt;AdminLayoutModule</title>
<path fill="none" stroke="black" d="M101,-122.32C101,-145.66 101,-183 101,-183 101,-183 1270.62,-183 1270.62,-183"/>
<polygon fill="black" stroke="black" points="1270.62,-186.5 1280.62,-183 1270.62,-179.5 1270.62,-186.5"/>
</g>
</g>
</svg>
