<?xml version="1.0" encoding="UTF-8" standalone="no"?>
<!DOCTYPE svg PUBLIC "-//W3C//DTD SVG 1.1//EN"
 "http://www.w3.org/Graphics/SVG/1.1/DTD/svg11.dtd">
<!-- Generated by graphviz version 2.47.0 (20210316.0004)
 -->
<!-- Title: dependencies Pages: 1 -->
<svg width="3832pt" height="284pt"
 viewBox="0.00 0.00 3832.00 284.00" xmlns="http://www.w3.org/2000/svg" xmlns:xlink="http://www.w3.org/1999/xlink">
<g id="graph0" class="graph" transform="scale(1 1) rotate(0) translate(4 280)">
<title>dependencies</title>
<polygon fill="white" stroke="transparent" points="-4,4 -4,-280 3828,-280 3828,4 -4,4"/>
<text text-anchor="start" x="1891.01" y="-42.4" font-family="sans-serif" font-weight="bold" font-size="14.00">Legend</text>
<polygon fill="#ffffb3" stroke="transparent" points="1678,-10 1678,-30 1698,-30 1698,-10 1678,-10"/>
<text text-anchor="start" x="1701.63" y="-15.4" font-family="sans-serif" font-size="14.00"> &#160;Declarations</text>
<polygon fill="#8dd3c7" stroke="transparent" points="1791,-10 1791,-30 1811,-30 1811,-10 1791,-10"/>
<text text-anchor="start" x="1814.73" y="-15.4" font-family="sans-serif" font-size="14.00"> &#160;Module</text>
<polygon fill="#80b1d3" stroke="transparent" points="1877,-10 1877,-30 1897,-30 1897,-10 1877,-10"/>
<text text-anchor="start" x="1900.78" y="-15.4" font-family="sans-serif" font-size="14.00"> &#160;Bootstrap</text>
<polygon fill="#fdb462" stroke="transparent" points="1974,-10 1974,-30 1994,-30 1994,-10 1974,-10"/>
<text text-anchor="start" x="1997.67" y="-15.4" font-family="sans-serif" font-size="14.00"> &#160;Providers</text>
<polygon fill="#fb8072" stroke="transparent" points="2070,-10 2070,-30 2090,-30 2090,-10 2070,-10"/>
<text text-anchor="start" x="2093.73" y="-15.4" font-family="sans-serif" font-size="14.00"> &#160;Exports</text>
<g id="clust1" class="cluster">
<title>cluster_AdminLayoutModule</title>
<polygon fill="none" stroke="black" stroke-dasharray="1,5" points="8,-70 8,-195 2616,-195 2616,-70 8,-70"/>
</g>
<g id="clust2" class="cluster">
<title>cluster_AdminLayoutModule_declarations</title>
<polygon fill="none" stroke="black" points="16,-78 16,-130 2608,-130 2608,-78 16,-78"/>
</g>
<g id="clust23" class="cluster">
<title>cluster_AppModule</title>
<polygon fill="none" stroke="black" stroke-dasharray="1,5" points="2624,-70 2624,-268 3364,-268 3364,-70 2624,-70"/>
</g>
<g id="clust24" class="cluster">
<title>cluster_AppModule_declarations</title>
<polygon fill="none" stroke="black" points="2784,-78 2784,-130 3356,-130 3356,-78 2784,-78"/>
</g>
<g id="clust29" class="cluster">
<title>cluster_AppModule_imports</title>
<polygon fill="none" stroke="black" points="2632,-78 2632,-130 2776,-130 2776,-78 2632,-78"/>
</g>
<g id="clust31" class="cluster">
<title>cluster_AppModule_bootstrap</title>
<polygon fill="none" stroke="black" points="2927,-208 2927,-260 3051,-260 3051,-208 2927,-208"/>
</g>
<g id="clust39" class="cluster">
<title>cluster_ComponentsModule</title>
<polygon fill="none" stroke="black" stroke-dasharray="1,5" points="3372,-70 3372,-268 3816,-268 3816,-70 3372,-70"/>
</g>
<g id="clust40" class="cluster">
<title>cluster_ComponentsModule_declarations</title>
<polygon fill="none" stroke="black" points="3386,-78 3386,-130 3802,-130 3802,-78 3386,-78"/>
</g>
<g id="clust45" class="cluster">
<title>cluster_ComponentsModule_exports</title>
<polygon fill="none" stroke="black" points="3380,-208 3380,-260 3808,-260 3808,-208 3380,-208"/>
</g>
<!-- ArtiklEditComponent -->
<g id="node1" class="node">
<title>ArtiklEditComponent</title>
<polygon fill="#ffffb3" stroke="black" points="2600.11,-122 2461.89,-122 2461.89,-86 2600.11,-86 2600.11,-122"/>
<text text-anchor="middle" x="2531" y="-99.8" font-family="Times,serif" font-size="14.00">ArtiklEditComponent</text>
</g>
<!-- AdminLayoutModule -->
<g id="node17" class="node">
<title>AdminLayoutModule</title>
<polygon fill="#8dd3c7" stroke="black" points="1419.1,-187 1416.1,-191 1395.1,-191 1392.1,-187 1280.9,-187 1280.9,-151 1419.1,-151 1419.1,-187"/>
<text text-anchor="middle" x="1350" y="-164.8" font-family="Times,serif" font-size="14.00">AdminLayoutModule</text>
</g>
<!-- ArtiklEditComponent&#45;&gt;AdminLayoutModule -->
<g id="edge1" class="edge">
<title>ArtiklEditComponent&#45;&gt;AdminLayoutModule</title>
<path fill="none" stroke="black" d="M2531,-122.04C2531,-143.66 2531,-177 2531,-177 2531,-177 1429.47,-177 1429.47,-177"/>
<polygon fill="black" stroke="black" points="1429.47,-173.5 1419.47,-177 1429.47,-180.5 1429.47,-173.5"/>
</g>
<!-- ArtiklNoviComponent -->
<g id="node2" class="node">
<title>ArtiklNoviComponent</title>
<polygon fill="#ffffb3" stroke="black" points="2444.27,-122 2301.73,-122 2301.73,-86 2444.27,-86 2444.27,-122"/>
<text text-anchor="middle" x="2373" y="-99.8" font-family="Times,serif" font-size="14.00">ArtiklNoviComponent</text>
</g>
<!-- ArtiklNoviComponent&#45;&gt;AdminLayoutModule -->
<g id="edge2" class="edge">
<title>ArtiklNoviComponent&#45;&gt;AdminLayoutModule</title>
<path fill="none" stroke="black" d="M2373,-122.13C2373,-142.57 2373,-173 2373,-173 2373,-173 1429.11,-173 1429.11,-173"/>
<polygon fill="black" stroke="black" points="1429.11,-169.5 1419.11,-173 1429.11,-176.5 1429.11,-169.5"/>
</g>
<!-- ArtikliComponent -->
<g id="node3" class="node">
<title>ArtikliComponent</title>
<polygon fill="#ffffb3" stroke="black" points="2283.16,-122 2164.84,-122 2164.84,-86 2283.16,-86 2283.16,-122"/>
<text text-anchor="middle" x="2224" y="-99.8" font-family="Times,serif" font-size="14.00">ArtikliComponent</text>
</g>
<!-- ArtikliComponent&#45;&gt;AdminLayoutModule -->
<g id="edge3" class="edge">
<title>ArtikliComponent&#45;&gt;AdminLayoutModule</title>
<path fill="none" stroke="black" d="M2224,-122.11C2224,-141.34 2224,-169 2224,-169 2224,-169 1429.31,-169 1429.31,-169"/>
<polygon fill="black" stroke="black" points="1429.31,-165.5 1419.31,-169 1429.31,-172.5 1429.31,-165.5"/>
</g>
<!-- DashboardComponent -->
<g id="node4" class="node">
<title>DashboardComponent</title>
<polygon fill="#ffffb3" stroke="black" points="2146.97,-122 2005.03,-122 2005.03,-86 2146.97,-86 2146.97,-122"/>
<text text-anchor="middle" x="2076" y="-99.8" font-family="Times,serif" font-size="14.00">DashboardComponent</text>
</g>
<!-- DashboardComponent&#45;&gt;AdminLayoutModule -->
<g id="edge4" class="edge">
<title>DashboardComponent&#45;&gt;AdminLayoutModule</title>
<path fill="none" stroke="black" d="M2076,-122.27C2076,-140.56 2076,-166 2076,-166 2076,-166 1429.28,-166 1429.28,-166"/>
<polygon fill="black" stroke="black" points="1429.28,-162.5 1419.28,-166 1429.28,-169.5 1429.28,-162.5"/>
</g>
<!-- KoirisnikEditComponent -->
<g id="node5" class="node">
<title>KoirisnikEditComponent</title>
<polygon fill="#ffffb3" stroke="black" points="1986.55,-122 1829.45,-122 1829.45,-86 1986.55,-86 1986.55,-122"/>
<text text-anchor="middle" x="1908" y="-99.8" font-family="Times,serif" font-size="14.00">KoirisnikEditComponent</text>
</g>
<!-- KoirisnikEditComponent&#45;&gt;AdminLayoutModule -->
<g id="edge5" class="edge">
<title>KoirisnikEditComponent&#45;&gt;AdminLayoutModule</title>
<path fill="none" stroke="black" d="M1908,-122.03C1908,-139.06 1908,-162 1908,-162 1908,-162 1429.26,-162 1429.26,-162"/>
<polygon fill="black" stroke="black" points="1429.26,-158.5 1419.26,-162 1429.26,-165.5 1429.26,-158.5"/>
</g>
<!-- KorisniciComponent -->
<g id="node6" class="node">
<title>KorisniciComponent</title>
<polygon fill="#ffffb3" stroke="black" points="1811.93,-122 1678.07,-122 1678.07,-86 1811.93,-86 1811.93,-122"/>
<text text-anchor="middle" x="1745" y="-99.8" font-family="Times,serif" font-size="14.00">KorisniciComponent</text>
</g>
<!-- KorisniciComponent&#45;&gt;AdminLayoutModule -->
<g id="edge6" class="edge">
<title>KorisniciComponent&#45;&gt;AdminLayoutModule</title>
<path fill="none" stroke="black" d="M1745,-122.01C1745,-138.05 1745,-159 1745,-159 1745,-159 1429.26,-159 1429.26,-159"/>
<polygon fill="black" stroke="black" points="1429.26,-155.5 1419.26,-159 1429.26,-162.5 1429.26,-155.5"/>
</g>
<!-- KorisnikNoviComponent -->
<g id="node7" class="node">
<title>KorisnikNoviComponent</title>
<polygon fill="#ffffb3" stroke="black" points="1660.32,-122 1501.68,-122 1501.68,-86 1660.32,-86 1660.32,-122"/>
<text text-anchor="middle" x="1581" y="-99.8" font-family="Times,serif" font-size="14.00">KorisnikNoviComponent</text>
</g>
<!-- KorisnikNoviComponent&#45;&gt;AdminLayoutModule -->
<g id="edge7" class="edge">
<title>KorisnikNoviComponent&#45;&gt;AdminLayoutModule</title>
<path fill="none" stroke="black" d="M1581,-122.12C1581,-136.78 1581,-155 1581,-155 1581,-155 1429.31,-155 1429.31,-155"/>
<polygon fill="black" stroke="black" points="1429.31,-151.5 1419.31,-155 1429.31,-158.5 1429.31,-151.5"/>
</g>
<!-- ModalComponent -->
<g id="node8" class="node">
<title>ModalComponent</title>
<polygon fill="#ffffb3" stroke="black" points="1483.88,-122 1366.12,-122 1366.12,-86 1483.88,-86 1483.88,-122"/>
<text text-anchor="middle" x="1425" y="-99.8" font-family="Times,serif" font-size="14.00">ModalComponent</text>
</g>
<!-- ModalComponent&#45;&gt;AdminLayoutModule -->
<g id="edge8" class="edge">
<title>ModalComponent&#45;&gt;AdminLayoutModule</title>
<path fill="none" stroke="black" d="M1392.55,-122.11C1392.55,-122.11 1392.55,-140.99 1392.55,-140.99"/>
<polygon fill="black" stroke="black" points="1389.05,-140.99 1392.55,-150.99 1396.05,-140.99 1389.05,-140.99"/>
</g>
<!-- PartnerEditComponent -->
<g id="node9" class="node">
<title>PartnerEditComponent</title>
<polygon fill="#ffffb3" stroke="black" points="1348.59,-122 1203.41,-122 1203.41,-86 1348.59,-86 1348.59,-122"/>
<text text-anchor="middle" x="1276" y="-99.8" font-family="Times,serif" font-size="14.00">PartnerEditComponent</text>
</g>
<!-- PartnerEditComponent&#45;&gt;AdminLayoutModule -->
<g id="edge9" class="edge">
<title>PartnerEditComponent&#45;&gt;AdminLayoutModule</title>
<path fill="none" stroke="black" d="M1314.75,-122.11C1314.75,-122.11 1314.75,-140.99 1314.75,-140.99"/>
<polygon fill="black" stroke="black" points="1311.25,-140.99 1314.75,-150.99 1318.25,-140.99 1311.25,-140.99"/>
</g>
<!-- PartnerNoviComponent -->
<g id="node10" class="node">
<title>PartnerNoviComponent</title>
<polygon fill="#ffffb3" stroke="black" points="1185.75,-122 1036.25,-122 1036.25,-86 1185.75,-86 1185.75,-122"/>
<text text-anchor="middle" x="1111" y="-99.8" font-family="Times,serif" font-size="14.00">PartnerNoviComponent</text>
</g>
<!-- PartnerNoviComponent&#45;&gt;AdminLayoutModule -->
<g id="edge10" class="edge">
<title>PartnerNoviComponent&#45;&gt;AdminLayoutModule</title>
<path fill="none" stroke="black" d="M1111,-122.19C1111,-137.18 1111,-156 1111,-156 1111,-156 1270.87,-156 1270.87,-156"/>
<polygon fill="black" stroke="black" points="1270.87,-159.5 1280.87,-156 1270.87,-152.5 1270.87,-159.5"/>
</g>
<!-- PartneriComponent -->
<g id="node11" class="node">
<title>PartneriComponent</title>
<polygon fill="#ffffb3" stroke="black" points="1017.65,-122 892.35,-122 892.35,-86 1017.65,-86 1017.65,-122"/>
<text text-anchor="middle" x="955" y="-99.8" font-family="Times,serif" font-size="14.00">PartneriComponent</text>
</g>
<!-- PartneriComponent&#45;&gt;AdminLayoutModule -->
<g id="edge11" class="edge">
<title>PartneriComponent&#45;&gt;AdminLayoutModule</title>
<path fill="none" stroke="black" d="M955,-122.03C955,-138.4 955,-160 955,-160 955,-160 1270.74,-160 1270.74,-160"/>
<polygon fill="black" stroke="black" points="1270.74,-163.5 1280.74,-160 1270.74,-156.5 1270.74,-163.5"/>
</g>
<!-- RacunNoviComponent -->
<g id="node12" class="node">
<title>RacunNoviComponent</title>
<polygon fill="#ffffb3" stroke="black" points="874.6,-122 729.4,-122 729.4,-86 874.6,-86 874.6,-122"/>
<text text-anchor="middle" x="802" y="-99.8" font-family="Times,serif" font-size="14.00">RacunNoviComponent</text>
</g>
<!-- RacunNoviComponent&#45;&gt;AdminLayoutModule -->
<g id="edge12" class="edge">
<title>RacunNoviComponent&#45;&gt;AdminLayoutModule</title>
<path fill="none" stroke="black" d="M802,-122.3C802,-140.27 802,-165 802,-165 802,-165 1270.87,-165 1270.87,-165"/>
<polygon fill="black" stroke="black" points="1270.87,-168.5 1280.87,-165 1270.87,-161.5 1270.87,-168.5"/>
</g>
<!-- RacuniComponent -->
<g id="node13" class="node">
<title>RacuniComponent</title>
<polygon fill="#ffffb3" stroke="black" points="711.49,-122 590.51,-122 590.51,-86 711.49,-86 711.49,-122"/>
<text text-anchor="middle" x="651" y="-99.8" font-family="Times,serif" font-size="14.00">RacuniComponent</text>
</g>
<!-- RacuniComponent&#45;&gt;AdminLayoutModule -->
<g id="edge13" class="edge">
<title>RacuniComponent&#45;&gt;AdminLayoutModule</title>
<path fill="none" stroke="black" d="M651,-122.11C651,-141.34 651,-169 651,-169 651,-169 1270.74,-169 1270.74,-169"/>
<polygon fill="black" stroke="black" points="1270.74,-172.5 1280.74,-169 1270.74,-165.5 1270.74,-172.5"/>
</g>
<!-- VrstaRacunaEditComponent -->
<g id="node14" class="node">
<title>VrstaRacunaEditComponent</title>
<polygon fill="#ffffb3" stroke="black" points="572.46,-122 395.54,-122 395.54,-86 572.46,-86 572.46,-122"/>
<text text-anchor="middle" x="484" y="-99.8" font-family="Times,serif" font-size="14.00">VrstaRacunaEditComponent</text>
</g>
<!-- VrstaRacunaEditComponent&#45;&gt;AdminLayoutModule -->
<g id="edge14" class="edge">
<title>VrstaRacunaEditComponent&#45;&gt;AdminLayoutModule</title>
<path fill="none" stroke="black" d="M484,-122.03C484,-142.77 484,-174 484,-174 484,-174 1270.6,-174 1270.6,-174"/>
<polygon fill="black" stroke="black" points="1270.6,-177.5 1280.6,-174 1270.6,-170.5 1270.6,-177.5"/>
</g>
<!-- VrstaRacunaNoviComponent -->
<g id="node15" class="node">
<title>VrstaRacunaNoviComponent</title>
<polygon fill="#ffffb3" stroke="black" points="377.63,-122 196.37,-122 196.37,-86 377.63,-86 377.63,-122"/>
<text text-anchor="middle" x="287" y="-99.8" font-family="Times,serif" font-size="14.00">VrstaRacunaNoviComponent</text>
</g>
<!-- VrstaRacunaNoviComponent&#45;&gt;AdminLayoutModule -->
<g id="edge15" class="edge">
<title>VrstaRacunaNoviComponent&#45;&gt;AdminLayoutModule</title>
<path fill="none" stroke="black" d="M287,-122.29C287,-144.21 287,-178 287,-178 287,-178 1270.66,-178 1270.66,-178"/>
<polygon fill="black" stroke="black" points="1270.66,-181.5 1280.66,-178 1270.66,-174.5 1270.66,-181.5"/>
</g>
<!-- VrsteRacunaComponent -->
<g id="node16" class="node">
<title>VrsteRacunaComponent</title>
<polygon fill="#ffffb3" stroke="black" points="177.63,-122 24.37,-122 24.37,-86 177.63,-86 177.63,-122"/>
<text text-anchor="middle" x="101" y="-99.8" font-family="Times,serif" font-size="14.00">VrsteRacunaComponent</text>
</g>
<!-- VrsteRacunaComponent&#45;&gt;AdminLayoutModule -->
<g id="edge16" class="edge">
<title>VrsteRacunaComponent&#45;&gt;AdminLayoutModule</title>
<path fill="none" stroke="black" d="M101,-122.32C101,-145.66 101,-183 101,-183 101,-183 1270.62,-183 1270.62,-183"/>
<polygon fill="black" stroke="black" points="1270.62,-186.5 1280.62,-183 1270.62,-179.5 1270.62,-186.5"/>
</g>
<!-- AdminLayoutComponent -->
<g id="node18" class="node">
<title>AdminLayoutComponent</title>
<polygon fill="#ffffb3" stroke="black" points="3347.88,-122 3188.12,-122 3188.12,-86 3347.88,-86 3347.88,-122"/>
<text text-anchor="middle" x="3268" y="-99.8" font-family="Times,serif" font-size="14.00">AdminLayoutComponent</text>
</g>
<!-- AppModule -->
<g id="node22" class="node">
<title>AppModule</title>
<polygon fill="#8dd3c7" stroke="black" points="3030.66,-187 3027.66,-191 3006.66,-191 3003.66,-187 2947.34,-187 2947.34,-151 3030.66,-151 3030.66,-187"/>
<text text-anchor="middle" x="2989" y="-164.8" font-family="Times,serif" font-size="14.00">AppModule</text>
</g>
<!-- AdminLayoutComponent&#45;&gt;AppModule -->
<g id="edge17" class="edge">
<title>AdminLayoutComponent&#45;&gt;AppModule</title>
<path fill="none" stroke="black" d="M3268,-122.01C3268,-144.49 3268,-180 3268,-180 3268,-180 3040.77,-180 3040.77,-180"/>
<polygon fill="black" stroke="black" points="3040.77,-176.5 3030.77,-180 3040.77,-183.5 3040.77,-176.5"/>
</g>
<!-- AppComponent -->
<g id="node19" class="node">
<title>AppComponent</title>
<polygon fill="#ffffb3" stroke="black" points="3169.94,-122 3064.06,-122 3064.06,-86 3169.94,-86 3169.94,-122"/>
<text text-anchor="middle" x="3117" y="-99.8" font-family="Times,serif" font-size="14.00">AppComponent</text>
</g>
<!-- AppComponent&#45;&gt;AppModule -->
<g id="edge18" class="edge">
<title>AppComponent&#45;&gt;AppModule</title>
<path fill="none" stroke="black" d="M3117,-122.13C3117,-142.57 3117,-173 3117,-173 3117,-173 3040.91,-173 3040.91,-173"/>
<polygon fill="black" stroke="black" points="3040.91,-169.5 3030.91,-173 3040.91,-176.5 3040.91,-169.5"/>
</g>
<!-- LoginComponent -->
<g id="node20" class="node">
<title>LoginComponent</title>
<polygon fill="#ffffb3" stroke="black" points="3046.28,-122 2931.72,-122 2931.72,-86 3046.28,-86 3046.28,-122"/>
<text text-anchor="middle" x="2989" y="-99.8" font-family="Times,serif" font-size="14.00">LoginComponent</text>
</g>
<!-- LoginComponent&#45;&gt;AppModule -->
<g id="edge19" class="edge">
<title>LoginComponent&#45;&gt;AppModule</title>
<path fill="none" stroke="black" d="M2989,-122.11C2989,-122.11 2989,-140.99 2989,-140.99"/>
<polygon fill="black" stroke="black" points="2985.5,-140.99 2989,-150.99 2992.5,-140.99 2985.5,-140.99"/>
</g>
<!-- LogoutComponent -->
<g id="node21" class="node">
<title>LogoutComponent</title>
<polygon fill="#ffffb3" stroke="black" points="2913.78,-122 2792.22,-122 2792.22,-86 2913.78,-86 2913.78,-122"/>
<text text-anchor="middle" x="2853" y="-99.8" font-family="Times,serif" font-size="14.00">LogoutComponent</text>
</g>
<!-- LogoutComponent&#45;&gt;AppModule -->
<g id="edge20" class="edge">
<title>LogoutComponent&#45;&gt;AppModule</title>
<path fill="none" stroke="black" d="M2853,-122.01C2853,-144.49 2853,-180 2853,-180 2853,-180 2937.09,-180 2937.09,-180"/>
<polygon fill="black" stroke="black" points="2937.09,-183.5 2947.09,-180 2937.09,-176.5 2937.09,-183.5"/>
</g>
<!-- AppComponent  -->
<g id="node24" class="node">
<title>AppComponent </title>
<polygon fill="#80b1d3" stroke="black" points="3043.44,-252 2934.56,-252 2934.56,-216 3043.44,-216 3043.44,-252"/>
<text text-anchor="middle" x="2989" y="-229.8" font-family="Times,serif" font-size="14.00">AppComponent </text>
</g>
<!-- AppModule&#45;&gt;AppComponent  -->
<g id="edge22" class="edge">
<title>AppModule&#45;&gt;AppComponent </title>
<path fill="none" stroke="black" stroke-dasharray="1,5" d="M2989,-187.11C2989,-187.11 2989,-205.99 2989,-205.99"/>
<polygon fill="black" stroke="black" points="2985.5,-205.99 2989,-215.99 2992.5,-205.99 2985.5,-205.99"/>
</g>
<!-- AppRoutingModule -->
<g id="node23" class="node">
<title>AppRoutingModule</title>
<polygon fill="#8dd3c7" stroke="black" points="2768.27,-122 2765.27,-126 2744.27,-126 2741.27,-122 2639.73,-122 2639.73,-86 2768.27,-86 2768.27,-122"/>
<text text-anchor="middle" x="2704" y="-99.8" font-family="Times,serif" font-size="14.00">AppRoutingModule</text>
</g>
<!-- AppRoutingModule&#45;&gt;AppModule -->
<g id="edge21" class="edge">
<title>AppRoutingModule&#45;&gt;AppModule</title>
<path fill="none" stroke="black" d="M2704,-122.15C2704,-145.76 2704,-184 2704,-184 2704,-184 2937.25,-184 2937.25,-184"/>
<polygon fill="black" stroke="black" points="2937.25,-187.5 2947.25,-184 2937.25,-180.5 2937.25,-187.5"/>
</g>
<!-- FooterComponent -->
<g id="node25" class="node">
<title>FooterComponent</title>
<polygon fill="#ffffb3" stroke="black" points="3793.88,-122 3676.12,-122 3676.12,-86 3793.88,-86 3793.88,-122"/>
<text text-anchor="middle" x="3735" y="-99.8" font-family="Times,serif" font-size="14.00">FooterComponent</text>
</g>
<!-- ComponentsModule -->
<g id="node28" class="node">
<title>ComponentsModule</title>
<polygon fill="#8dd3c7" stroke="black" points="3662.33,-187 3659.33,-191 3638.33,-191 3635.33,-187 3531.67,-187 3531.67,-151 3662.33,-151 3662.33,-187"/>
<text text-anchor="middle" x="3597" y="-164.8" font-family="Times,serif" font-size="14.00">ComponentsModule</text>
</g>
<!-- FooterComponent&#45;&gt;ComponentsModule -->
<g id="edge23" class="edge">
<title>FooterComponent&#45;&gt;ComponentsModule</title>
<path fill="none" stroke="black" d="M3755.4,-122.02C3755.4,-139.37 3755.4,-163 3755.4,-163 3755.4,-163 3672.34,-163 3672.34,-163"/>
<polygon fill="black" stroke="black" points="3672.34,-159.5 3662.34,-163 3672.34,-166.5 3672.34,-159.5"/>
</g>
<!-- NavbarComponent -->
<g id="node26" class="node">
<title>NavbarComponent</title>
<polygon fill="#ffffb3" stroke="black" points="3658.03,-122 3535.97,-122 3535.97,-86 3658.03,-86 3658.03,-122"/>
<text text-anchor="middle" x="3597" y="-99.8" font-family="Times,serif" font-size="14.00">NavbarComponent</text>
</g>
<!-- NavbarComponent&#45;&gt;ComponentsModule -->
<g id="edge24" class="edge">
<title>NavbarComponent&#45;&gt;ComponentsModule</title>
<path fill="none" stroke="black" d="M3597,-122.11C3597,-122.11 3597,-140.99 3597,-140.99"/>
<polygon fill="black" stroke="black" points="3593.5,-140.99 3597,-150.99 3600.5,-140.99 3593.5,-140.99"/>
</g>
<!-- SidebarComponent -->
<g id="node27" class="node">
<title>SidebarComponent</title>
<polygon fill="#ffffb3" stroke="black" points="3518.1,-122 3393.9,-122 3393.9,-86 3518.1,-86 3518.1,-122"/>
<text text-anchor="middle" x="3456" y="-99.8" font-family="Times,serif" font-size="14.00">SidebarComponent</text>
</g>
<!-- SidebarComponent&#45;&gt;ComponentsModule -->
<g id="edge25" class="edge">
<title>SidebarComponent&#45;&gt;ComponentsModule</title>
<path fill="none" stroke="black" d="M3475.18,-122.01C3475.18,-138.05 3475.18,-159 3475.18,-159 3475.18,-159 3521.81,-159 3521.81,-159"/>
<polygon fill="black" stroke="black" points="3521.81,-162.5 3531.81,-159 3521.81,-155.5 3521.81,-162.5"/>
</g>
<!-- FooterComponent  -->
<g id="node29" class="node">
<title>FooterComponent </title>
<polygon fill="#fb8072" stroke="black" points="3799.88,-252 3678.12,-252 3678.12,-216 3799.88,-216 3799.88,-252"/>
<text text-anchor="middle" x="3739" y="-229.8" font-family="Times,serif" font-size="14.00">FooterComponent </text>
</g>
<!-- ComponentsModule&#45;&gt;FooterComponent  -->
<g id="edge26" class="edge">
<title>ComponentsModule&#45;&gt;FooterComponent </title>
<path fill="none" stroke="black" stroke-dasharray="5,2" d="M3662.19,-175C3690.3,-175 3716.85,-175 3716.85,-175 3716.85,-175 3716.85,-205.98 3716.85,-205.98"/>
<polygon fill="black" stroke="black" points="3713.35,-205.98 3716.85,-215.98 3720.35,-205.98 3713.35,-205.98"/>
</g>
<!-- NavbarComponent  -->
<g id="node30" class="node">
<title>NavbarComponent </title>
<polygon fill="#fb8072" stroke="black" points="3660.03,-252 3533.97,-252 3533.97,-216 3660.03,-216 3660.03,-252"/>
<text text-anchor="middle" x="3597" y="-229.8" font-family="Times,serif" font-size="14.00">NavbarComponent </text>
</g>
<!-- ComponentsModule&#45;&gt;NavbarComponent  -->
<g id="edge27" class="edge">
<title>ComponentsModule&#45;&gt;NavbarComponent </title>
<path fill="none" stroke="black" stroke-dasharray="5,2" d="M3597,-187.11C3597,-187.11 3597,-205.99 3597,-205.99"/>
<polygon fill="black" stroke="black" points="3593.5,-205.99 3597,-215.99 3600.5,-205.99 3593.5,-205.99"/>
</g>
<!-- SidebarComponent  -->
<g id="node31" class="node">
<title>SidebarComponent </title>
<polygon fill="#fb8072" stroke="black" points="3515.6,-252 3388.4,-252 3388.4,-216 3515.6,-216 3515.6,-252"/>
<text text-anchor="middle" x="3452" y="-229.8" font-family="Times,serif" font-size="14.00">SidebarComponent </text>
</g>
<!-- ComponentsModule&#45;&gt;SidebarComponent  -->
<g id="edge28" class="edge">
<title>ComponentsModule&#45;&gt;SidebarComponent </title>
<path fill="none" stroke="black" stroke-dasharray="5,2" d="M3531.4,-166C3486.32,-166 3434.57,-166 3434.57,-166 3434.57,-166 3434.57,-205.78 3434.57,-205.78"/>
<polygon fill="black" stroke="black" points="3431.07,-205.78 3434.57,-215.78 3438.07,-205.78 3431.07,-205.78"/>
</g>
</g>
</svg>
